{
	"asset":{
		"generator":"Khronos glTF Blender I/O v4.1.62",
		"version":"2.0"
	},
	"scene":0,
	"scenes":[
		{
			"name":"Scene",
			"nodes":[
				0,
				7
			]
		}
	],
	"nodes":[
		{
			"name":"_(Loose Entity)"
		},
		{
			"mesh":0,
			"name":"C-tmpGPJJmg",
			"translation":[
				0,
				0,
				-0.4711482524871826
			]
		},
		{
			"mesh":1,
			"name":"G-Object.002",
			"scale":[
				1,
				1.1906771659851074,
				1
			],
			"translation":[
				0.003927788697183132,
				0,
				-0.00227891537360847
			]
		},
		{
			"mesh":2,
			"name":"C-Ada Completa.STL#1",
			"scale":[
				0.8256000280380249,
				0.9830231070518494,
				0.8256000280380249
			],
			"translation":[
				-9.475310798734426e-05,
				0,
				0
			]
		},
		{
			"mesh":3,
			"name":"C-Encosto Ada.STL",
			"scale":[
				0.816848635673523,
				1.0504112243652344,
				0.816848635673523
			],
			"translation":[
				0.02179216407239437,
				0.0008853673934936523,
				-0.23162132501602173
			]
		},
		{
			"children":[
				3,
				4
			],
			"name":"G-Object.003",
			"translation":[
				0,
				0.011906743049621582,
				0
			]
		},
		{
			"children":[
				2,
				5
			],
			"name":"G-Object.001",
			"translation":[
				0.0028331931680440903,
				0.6499999761581421,
				-0.004330577328801155
			]
		},
		{
			"children":[
				1,
				6
			],
			"name":"G-Object",
			"translation":[
				-0.0013228058815002441,
				0,
				0.004944244399666786
			]
		}
	],
	"materials":[
		{
			"doubleSided":true,
			"name":"[Wood Veneer 01]",
			"pbrMetallicRoughness":{
				"baseColorTexture":{
					"index":0
				},
				"metallicFactor":0,
				"roughnessFactor":0.5
			}
		},
		{
			"doubleSided":true,
			"name":"Tecido neutro",
			"pbrMetallicRoughness":{
				"baseColorTexture":{
					"index":1
				},
				"metallicFactor":0,
				"roughnessFactor":0.5
			}
		}
	],
	"meshes":[
		{
			"name":"C-tmpGPJJmg",
			"primitives":[
				{
					"attributes":{
						"POSITION":0,
						"NORMAL":1,
						"TEXCOORD_0":2
					},
					"indices":3,
					"material":0
				}
			]
		},
		{
			"name":"G-Object.002",
			"primitives":[
				{
					"attributes":{
						"POSITION":4,
						"NORMAL":5,
						"TEXCOORD_0":6
					},
					"indices":7,
					"material":0
				}
			]
		},
		{
			"name":"C-Ada Completa.STL#1",
			"primitives":[
				{
					"attributes":{
						"POSITION":8,
						"NORMAL":9,
						"TEXCOORD_0":10
					},
					"indices":11,
					"material":1
				}
			]
		},
		{
			"name":"C-Encosto Ada.STL",
			"primitives":[
				{
					"attributes":{
						"POSITION":12,
						"NORMAL":13,
						"TEXCOORD_0":14
					},
					"indices":15,
					"material":1
				}
			]
		}
	],
	"textures":[
		{
			"sampler":0,
			"source":0
		},
		{
			"sampler":0,
			"source":1
		}
	],
	"images":[
		{
			"mimeType":"image/png",
			"name":"Wood 01",
			"uri":"Wood%2001.png"
		},
		{
			"mimeType":"image/png",
			"name":"vm_v4_067_fabric_diffuse",
			"uri":"vm_v4_067_fabric_diffuse.png"
		}
	],
	"accessors":[
		{
			"bufferView":0,
			"componentType":5126,
			"count":1504,
			"max":[
				0.4711482524871826,
				0.6499999761581421,
				0.4711482524871826
			],
			"min":[
				0,
				0,
				0
			],
			"type":"VEC3"
		},
		{
			"bufferView":1,
			"componentType":5126,
			"count":1504,
			"type":"VEC3"
		},
		{
			"bufferView":2,
			"componentType":5126,
			"count":1504,
			"type":"VEC2"
		},
		{
			"bufferView":3,
			"componentType":5123,
			"count":1980,
			"type":"SCALAR"
		},
		{
			"bufferView":4,
			"componentType":5126,
			"count":5100,
			"max":[
				0.4576262831687927,
				0.009999999776482582,
				0
			],
			"min":[
				0,
				0,
				-0.4579292833805084
			],
			"type":"VEC3"
		},
		{
			"bufferView":5,
			"componentType":5126,
			"count":5100,
			"type":"VEC3"
		},
		{
			"bufferView":6,
			"componentType":5126,
			"count":5100,
			"type":"VEC2"
		},
		{
			"bufferView":7,
			"componentType":5123,
			"count":7788,
			"type":"SCALAR"
		},
		{
			"bufferView":8,
			"componentType":5126,
			"count":7546,
			"max":[
				0.5639251470565796,
				0.05000000074505806,
				0
			],
			"min":[
				0.00011476874351501465,
				0,
				-0.5035719275474548
			],
			"type":"VEC3"
		},
		{
			"bufferView":9,
			"componentType":5126,
			"count":7546,
			"type":"VEC3"
		},
		{
			"bufferView":10,
			"componentType":5126,
			"count":7546,
			"type":"VEC2"
		},
		{
			"bufferView":11,
			"componentType":5123,
			"count":9576,
			"type":"SCALAR"
		},
		{
			"bufferView":12,
			"componentType":5126,
			"count":6426,
			"max":[
				0.5156448483467102,
				0.1699361354112625,
				-0.11111132055521011
			],
			"min":[
				0.000849306583404541,
				0,
				-0.2826298177242279
			],
			"type":"VEC3"
		},
		{
			"bufferView":13,
			"componentType":5126,
			"count":6426,
			"type":"VEC3"
		},
		{
			"bufferView":14,
			"componentType":5126,
			"count":6426,
			"type":"VEC2"
		},
		{
			"bufferView":15,
			"componentType":5123,
			"count":7890,
			"type":"SCALAR"
		}
	],
	"bufferViews":[
		{
			"buffer":0,
			"byteLength":18048,
			"byteOffset":0,
			"target":34962
		},
		{
			"buffer":0,
			"byteLength":18048,
			"byteOffset":18048,
			"target":34962
		},
		{
			"buffer":0,
			"byteLength":12032,
			"byteOffset":36096,
			"target":34962
		},
		{
			"buffer":0,
			"byteLength":3960,
			"byteOffset":48128,
			"target":34963
		},
		{
			"buffer":0,
			"byteLength":61200,
			"byteOffset":52088,
			"target":34962
		},
		{
			"buffer":0,
			"byteLength":61200,
			"byteOffset":113288,
			"target":34962
		},
		{
			"buffer":0,
			"byteLength":40800,
			"byteOffset":174488,
			"target":34962
		},
		{
			"buffer":0,
			"byteLength":15576,
			"byteOffset":215288,
			"target":34963
		},
		{
			"buffer":0,
			"byteLength":90552,
			"byteOffset":230864,
			"target":34962
		},
		{
			"buffer":0,
			"byteLength":90552,
			"byteOffset":321416,
			"target":34962
		},
		{
			"buffer":0,
			"byteLength":60368,
			"byteOffset":411968,
			"target":34962
		},
		{
			"buffer":0,
			"byteLength":19152,
			"byteOffset":472336,
			"target":34963
		},
		{
			"buffer":0,
			"byteLength":77112,
			"byteOffset":491488,
			"target":34962
		},
		{
			"buffer":0,
			"byteLength":77112,
			"byteOffset":568600,
			"target":34962
		},
		{
			"buffer":0,
			"byteLength":51408,
			"byteOffset":645712,
			"target":34962
		},
		{
			"buffer":0,
			"byteLength":15780,
			"byteOffset":697120,
			"target":34963
		}
	],
	"samplers":[
		{
			"magFilter":9729,
			"minFilter":9987
		}
	],
	"buffers":[
		{
			"byteLength":712900,
			"uri":"ada.bin"
		}
	]
}
