{
	"asset":{
		"generator":"Khronos glTF Blender I/O v4.0.44",
		"version":"2.0"
	},
	"scene":0,
	"scenes":[
		{
			"name":"Scene",
			"nodes":[
				0,
				4
			]
		}
	],
	"nodes":[
		{
			"name":"_(Loose Entity)",
			"rotation":[
				0.70710688829422,
				0,
				0,
				0.7071066498756409
			],
			"translation":[
				0,
				-0.0035507231950759888,
				-0.30652713775634766
			]
		},
		{
			"mesh":0,
			"name":"C-ACENTO CAD.STL",
			"rotation":[
				0.4799846112728119,
				0.5192444324493408,
				0.47998467087745667,
				0.5192444920539856
			],
			"translation":[
				0.5410876274108887,
				-0.019505873322486877,
				0.09697793424129486
			]
		},
		{
			"mesh":1,
			"name":"C-ENCOSTO CAD.STL",
			"rotation":[
				0.44163158535957336,
				0.5522332191467285,
				0.441631555557251,
				0.5522332787513733
			],
			"scale":[
				1,
				0.9100000858306885,
				1
			],
			"translation":[
				0.5347269773483276,
				0.23559130728244781,
				0.26548531651496887
			]
		},
		{
			"mesh":2,
			"name":"C-ESTRUTURA CAD.STL",
			"rotation":[
				0.5,
				0.5,
				0.5,
				0.5000000596046448
			],
			"translation":[
				0.5239297151565552,
				-0.006482809782028198,
				-0.32169532775878906
			]
		},
		{
			"children":[
				1,
				2,
				3
			],
			"name":"G-Object",
			"translation":[
				-0.02185872197151184,
				0,
				0.01516817882657051
			]
		}
	],
	"materials":[
		{
			"doubleSided":true,
			"name":"Tecido neutro",
			"pbrMetallicRoughness":{
				"baseColorTexture":{
					"index":0
				},
				"metallicFactor":0,
				"roughnessFactor":0.5
			}
		},
		{
			"doubleSided":true,
			"name":"[Wood Veneer 01]",
			"pbrMetallicRoughness":{
				"baseColorTexture":{
					"index":1
				},
				"metallicFactor":0,
				"roughnessFactor":0.5
			}
		}
	],
	"meshes":[
		{
			"name":"C-ACENTO CAD.STL",
			"primitives":[
				{
					"attributes":{
						"POSITION":0,
						"NORMAL":1,
						"TEXCOORD_0":2
					},
					"indices":3,
					"material":0
				}
			]
		},
		{
			"name":"C-ENCOSTO CAD.STL",
			"primitives":[
				{
					"attributes":{
						"POSITION":4,
						"NORMAL":5,
						"TEXCOORD_0":6
					},
					"indices":7,
					"material":0
				}
			]
		},
		{
			"name":"C-ESTRUTURA CAD.STL",
			"primitives":[
				{
					"attributes":{
						"POSITION":8,
						"NORMAL":9,
						"TEXCOORD_0":10
					},
					"indices":11,
					"material":1
				}
			]
		}
	],
	"textures":[
		{
			"sampler":0,
			"source":0
		},
		{
			"sampler":0,
			"source":1
		}
	],
	"images":[
		{
			"mimeType":"image/png",
			"name":"vm_v4_067_fabric_diffuse",
			"uri":"vm_v4_067_fabric_diffuse.png"
		},
		{
			"mimeType":"image/png",
			"name":"Wood 01",
			"uri":"Wood%2001.png"
		}
	],
	"accessors":[
		{
			"bufferView":0,
			"componentType":5126,
			"count":10812,
			"max":[
				0.45231693983078003,
				0.07070640474557877,
				-0.0013281702995300293
			],
			"min":[
				0.0005526095628738403,
				0.002766640391200781,
				-0.5410876274108887
			],
			"type":"VEC3"
		},
		{
			"bufferView":1,
			"componentType":5126,
			"count":10812,
			"type":"VEC3"
		},
		{
			"bufferView":2,
			"componentType":5126,
			"count":10812,
			"type":"VEC2"
		},
		{
			"bufferView":3,
			"componentType":5123,
			"count":11052,
			"type":"SCALAR"
		},
		{
			"bufferView":4,
			"componentType":5126,
			"count":20214,
			"max":[
				0.21692384779453278,
				0.21177193522453308,
				-0.0015405714511871338
			],
			"min":[
				0.002770937979221344,
				0.001771946088410914,
				-0.5239660143852234
			],
			"type":"VEC3"
		},
		{
			"bufferView":5,
			"componentType":5126,
			"count":20214,
			"type":"VEC3"
		},
		{
			"bufferView":6,
			"componentType":5126,
			"count":20214,
			"type":"VEC2"
		},
		{
			"bufferView":7,
			"componentType":5123,
			"count":21936,
			"type":"SCALAR"
		},
		{
			"bufferView":8,
			"componentType":5126,
			"count":3308,
			"max":[
				0.5099999904632568,
				0.6700000166893005,
				0
			],
			"min":[
				0,
				-1.3032110113275763e-16,
				-0.5049999952316284
			],
			"type":"VEC3"
		},
		{
			"bufferView":9,
			"componentType":5126,
			"count":3308,
			"type":"VEC3"
		},
		{
			"bufferView":10,
			"componentType":5126,
			"count":3308,
			"type":"VEC2"
		},
		{
			"bufferView":11,
			"componentType":5123,
			"count":5067,
			"type":"SCALAR"
		}
	],
	"bufferViews":[
		{
			"buffer":0,
			"byteLength":129744,
			"byteOffset":0,
			"target":34962
		},
		{
			"buffer":0,
			"byteLength":129744,
			"byteOffset":129744,
			"target":34962
		},
		{
			"buffer":0,
			"byteLength":86496,
			"byteOffset":259488,
			"target":34962
		},
		{
			"buffer":0,
			"byteLength":22104,
			"byteOffset":345984,
			"target":34963
		},
		{
			"buffer":0,
			"byteLength":242568,
			"byteOffset":368088,
			"target":34962
		},
		{
			"buffer":0,
			"byteLength":242568,
			"byteOffset":610656,
			"target":34962
		},
		{
			"buffer":0,
			"byteLength":161712,
			"byteOffset":853224,
			"target":34962
		},
		{
			"buffer":0,
			"byteLength":43872,
			"byteOffset":1014936,
			"target":34963
		},
		{
			"buffer":0,
			"byteLength":39696,
			"byteOffset":1058808,
			"target":34962
		},
		{
			"buffer":0,
			"byteLength":39696,
			"byteOffset":1098504,
			"target":34962
		},
		{
			"buffer":0,
			"byteLength":26464,
			"byteOffset":1138200,
			"target":34962
		},
		{
			"buffer":0,
			"byteLength":10134,
			"byteOffset":1164664,
			"target":34963
		}
	],
	"samplers":[
		{
			"magFilter":9729,
			"minFilter":9987
		}
	],
	"buffers":[
		{
			"byteLength":1174800,
			"uri":"cadeira_fly.bin"
		}
	]
}
