{
	"asset":{
		"generator":"Khronos glTF Blender I/O v4.1.62",
		"version":"2.0"
	},
	"scene":0,
	"scenes":[
		{
			"name":"Scene",
			"nodes":[
				0,
				4
			]
		}
	],
	"nodes":[
		{
			"name":"_(Loose Entity)"
		},
		{
			"mesh":0,
			"name":"C-ACENTO CAD.STL",
			"rotation":[
				-0.027760885655879974,
				0.7065616250038147,
				-0.027760881930589676,
				0.7065616250038147
			],
			"translation":[
				0.5410876274108887,
				0.41867324709892273,
				0.0007870178669691086
			]
		},
		{
			"mesh":1,
			"name":"C-ENCOSTO CAD.STL",
			"rotation":[
				-0.07820719480514526,
				0.7027685046195984,
				-0.07820717990398407,
				0.7027686238288879
			],
			"scale":[
				1,
				0.9100000858306885,
				1
			],
			"translation":[
				0.5347269773483276,
				0.5871806144714355,
				-0.25431016087532043
			]
		},
		{
			"mesh":2,
			"name":"C-ESTRUTURA CAD.STL",
			"rotation":[
				0,
				0.7071067094802856,
				0,
				0.7071068286895752
			],
			"translation":[
				0.5239297151565552,
				0,
				-0.012236085720360279
			]
		},
		{
			"children":[
				1,
				2,
				3
			],
			"name":"G-Object",
			"translation":[
				-0.02185872197151184,
				0,
				0.01516817882657051
			]
		}
	],
	"materials":[
		{
			"doubleSided":true,
			"name":"Tecido neutro",
			"pbrMetallicRoughness":{
				"baseColorTexture":{
					"index":0
				},
				"metallicFactor":0,
				"roughnessFactor":0.5
			}
		},
		{
			"doubleSided":true,
			"name":"[Wood Veneer 01]",
			"pbrMetallicRoughness":{
				"baseColorTexture":{
					"index":1
				},
				"metallicFactor":0,
				"roughnessFactor":0.5
			}
		}
	],
	"meshes":[
		{
			"name":"C-ACENTO CAD.STL",
			"primitives":[
				{
					"attributes":{
						"POSITION":0,
						"NORMAL":1,
						"TEXCOORD_0":2
					},
					"indices":3,
					"material":0
				}
			]
		},
		{
			"name":"C-ENCOSTO CAD.STL",
			"primitives":[
				{
					"attributes":{
						"POSITION":4,
						"NORMAL":5,
						"TEXCOORD_0":6
					},
					"indices":7,
					"material":0
				}
			]
		},
		{
			"name":"C-ESTRUTURA CAD.STL",
			"primitives":[
				{
					"attributes":{
						"POSITION":8,
						"NORMAL":9,
						"TEXCOORD_0":10
					},
					"indices":11,
					"material":1
				}
			]
		}
	],
	"textures":[
		{
			"sampler":0,
			"source":0
		},
		{
			"sampler":0,
			"source":1
		}
	],
	"images":[
		{
			"mimeType":"image/png",
			"name":"Fly-Bake",
			"uri":"Fly-Bake.png"
		},
		{
			"mimeType":"image/png",
			"name":"Wodd-Bake-Wood 01",
			"uri":"Wodd-Bake-Wood%2001.png"
		}
	],
	"accessors":[
		{
			"bufferView":0,
			"componentType":5126,
			"count":10352,
			"max":[
				0.45231693983078003,
				0.07070640474557877,
				-0.0013281702995300293
			],
			"min":[
				0.0005526095628738403,
				0.002766640391200781,
				-0.5410876274108887
			],
			"type":"VEC3"
		},
		{
			"bufferView":1,
			"componentType":5126,
			"count":10352,
			"type":"VEC3"
		},
		{
			"bufferView":2,
			"componentType":5126,
			"count":10352,
			"type":"VEC2"
		},
		{
			"bufferView":3,
			"componentType":5123,
			"count":11052,
			"type":"SCALAR"
		},
		{
			"bufferView":4,
			"componentType":5126,
			"count":19536,
			"max":[
				0.21692384779453278,
				0.21177193522453308,
				-0.0015405714511871338
			],
			"min":[
				0.002770937979221344,
				0.001771946088410914,
				-0.5239660143852234
			],
			"type":"VEC3"
		},
		{
			"bufferView":5,
			"componentType":5126,
			"count":19536,
			"type":"VEC3"
		},
		{
			"bufferView":6,
			"componentType":5126,
			"count":19536,
			"type":"VEC2"
		},
		{
			"bufferView":7,
			"componentType":5123,
			"count":21936,
			"type":"SCALAR"
		},
		{
			"bufferView":8,
			"componentType":5126,
			"count":2260,
			"max":[
				0.5099999904632568,
				0.6700000166893005,
				0
			],
			"min":[
				0,
				-1.3032110113275763e-16,
				-0.5049999952316284
			],
			"type":"VEC3"
		},
		{
			"bufferView":9,
			"componentType":5126,
			"count":2260,
			"type":"VEC3"
		},
		{
			"bufferView":10,
			"componentType":5126,
			"count":2260,
			"type":"VEC2"
		},
		{
			"bufferView":11,
			"componentType":5123,
			"count":5067,
			"type":"SCALAR"
		}
	],
	"bufferViews":[
		{
			"buffer":0,
			"byteLength":124224,
			"byteOffset":0,
			"target":34962
		},
		{
			"buffer":0,
			"byteLength":124224,
			"byteOffset":124224,
			"target":34962
		},
		{
			"buffer":0,
			"byteLength":82816,
			"byteOffset":248448,
			"target":34962
		},
		{
			"buffer":0,
			"byteLength":22104,
			"byteOffset":331264,
			"target":34963
		},
		{
			"buffer":0,
			"byteLength":234432,
			"byteOffset":353368,
			"target":34962
		},
		{
			"buffer":0,
			"byteLength":234432,
			"byteOffset":587800,
			"target":34962
		},
		{
			"buffer":0,
			"byteLength":156288,
			"byteOffset":822232,
			"target":34962
		},
		{
			"buffer":0,
			"byteLength":43872,
			"byteOffset":978520,
			"target":34963
		},
		{
			"buffer":0,
			"byteLength":27120,
			"byteOffset":1022392,
			"target":34962
		},
		{
			"buffer":0,
			"byteLength":27120,
			"byteOffset":1049512,
			"target":34962
		},
		{
			"buffer":0,
			"byteLength":18080,
			"byteOffset":1076632,
			"target":34962
		},
		{
			"buffer":0,
			"byteLength":10134,
			"byteOffset":1094712,
			"target":34963
		}
	],
	"samplers":[
		{
			"magFilter":9729,
			"minFilter":9987
		}
	],
	"buffers":[
		{
			"byteLength":1104848,
			"uri":"FLY.bin"
		}
	]
}
