{
	"asset":{
		"generator":"Khronos glTF Blender I/O v4.1.62",
		"version":"2.0"
	},
	"scene":0,
	"scenes":[
		{
			"name":"Scene",
			"nodes":[
				0,
				10,
				13
			]
		}
	],
	"nodes":[
		{
			"name":"_(Loose Entity)"
		},
		{
			"mesh":0,
			"name":"G-Object.001",
			"translation":[
				0.18611747026443481,
				0.32899999618530273,
				-0.18430617451667786
			]
		},
		{
			"mesh":1,
			"name":"G-Object.002",
			"translation":[
				0.14384150505065918,
				0.5537434220314026,
				-0.14456047117710114
			]
		},
		{
			"mesh":2,
			"name":"G-Object.003",
			"translation":[
				0.09723728895187378,
				0.5597434043884277,
				-0.09533629566431046
			]
		},
		{
			"mesh":3,
			"name":"G-Object.004",
			"translation":[
				0,
				0.574999988079071,
				0
			]
		},
		{
			"mesh":4,
			"name":"G-Object.005",
			"translation":[
				0.18561747670173645,
				0,
				-0.10873295366764069
			]
		},
		{
			"mesh":5,
			"name":"G-Object.006",
			"translation":[
				0.09561747312545776,
				0.004000000189989805,
				-0.09373295307159424
			]
		},
		{
			"mesh":6,
			"name":"G-Object.007",
			"translation":[
				0.18561747670173645,
				0,
				-0.25873294472694397
			]
		},
		{
			"mesh":7,
			"name":"G-Object.008",
			"rotation":[
				0,
				0.7071067094802856,
				0,
				0.7071068286895752
			],
			"translation":[
				0.12915313243865967,
				0,
				-0.18726861476898193
			]
		},
		{
			"mesh":8,
			"name":"G-Object.009",
			"rotation":[
				0,
				0.7071067094802856,
				0,
				0.7071068286895752
			],
			"translation":[
				0.27915313839912415,
				0,
				-0.18726861476898193
			]
		},
		{
			"children":[
				1,
				2,
				3,
				4,
				5,
				6,
				7,
				8,
				9
			],
			"name":"G-Object"
		},
		{
			"name":"G-Object.011"
		},
		{
			"children":[
				11
			],
			"name":"G-Object.010"
		},
		{
			"children":[
				12
			],
			"name":"C-Mesa Apoio Red. Kim - Gottems",
			"translation":[
				0.5206207633018494,
				0,
				-0.00644279457628727
			]
		}
	],
	"materials":[
		{
			"doubleSided":true,
			"name":"[Color M00]",
			"pbrMetallicRoughness":{
				"metallicFactor":0,
				"roughnessFactor":0.5
			}
		},
		{
			"doubleSided":true,
			"name":"Suprema Nogueira1",
			"pbrMetallicRoughness":{
				"baseColorTexture":{
					"index":0
				},
				"metallicFactor":0,
				"roughnessFactor":0.5
			}
		}
	],
	"meshes":[
		{
			"name":"G-Object.001",
			"primitives":[
				{
					"attributes":{
						"POSITION":0,
						"NORMAL":1
					},
					"indices":2,
					"material":0
				}
			]
		},
		{
			"name":"G-Object.002",
			"primitives":[
				{
					"attributes":{
						"POSITION":3,
						"NORMAL":4
					},
					"indices":5,
					"material":0
				}
			]
		},
		{
			"name":"G-Object.003",
			"primitives":[
				{
					"attributes":{
						"POSITION":6,
						"NORMAL":7
					},
					"indices":8,
					"material":0
				}
			]
		},
		{
			"name":"G-Object.004",
			"primitives":[
				{
					"attributes":{
						"POSITION":9,
						"NORMAL":10,
						"TEXCOORD_0":11
					},
					"indices":12,
					"material":1
				}
			]
		},
		{
			"name":"G-Object.005",
			"primitives":[
				{
					"attributes":{
						"POSITION":13,
						"NORMAL":14
					},
					"indices":15,
					"material":0
				}
			]
		},
		{
			"name":"G-Object.006",
			"primitives":[
				{
					"attributes":{
						"POSITION":16,
						"NORMAL":17
					},
					"indices":18,
					"material":0
				}
			]
		},
		{
			"name":"G-Object.007",
			"primitives":[
				{
					"attributes":{
						"POSITION":19,
						"NORMAL":20
					},
					"indices":15,
					"material":0
				}
			]
		},
		{
			"name":"G-Object.008",
			"primitives":[
				{
					"attributes":{
						"POSITION":21,
						"NORMAL":22
					},
					"indices":15,
					"material":0
				}
			]
		},
		{
			"name":"G-Object.009",
			"primitives":[
				{
					"attributes":{
						"POSITION":23,
						"NORMAL":24
					},
					"indices":15,
					"material":0
				}
			]
		}
	],
	"textures":[
		{
			"sampler":0,
			"source":0
		}
	],
	"images":[
		{
			"mimeType":"image/png",
			"name":"NOGUEIRA",
			"uri":"NOGUEIRA.png"
		}
	],
	"accessors":[
		{
			"bufferView":0,
			"componentType":5126,
			"count":433,
			"max":[
				0.01899999938905239,
				0.2280000001192093,
				0
			],
			"min":[
				0,
				-0.1599999964237213,
				-0.01899999938905239
			],
			"type":"VEC3"
		},
		{
			"bufferView":1,
			"componentType":5126,
			"count":433,
			"type":"VEC3"
		},
		{
			"bufferView":2,
			"componentType":5123,
			"count":948,
			"type":"SCALAR"
		},
		{
			"bufferView":3,
			"componentType":5126,
			"count":320,
			"max":[
				0.09998951107263565,
				0.006000000052154064,
				0
			],
			"min":[
				0,
				0,
				-0.09998951107263565
			],
			"type":"VEC3"
		},
		{
			"bufferView":4,
			"componentType":5126,
			"count":320,
			"type":"VEC3"
		},
		{
			"bufferView":5,
			"componentType":5123,
			"count":948,
			"type":"SCALAR"
		},
		{
			"bufferView":6,
			"componentType":5126,
			"count":400,
			"max":[
				0.199910506606102,
				0.014999999664723873,
				0
			],
			"min":[
				0,
				0,
				-0.199910506606102
			],
			"type":"VEC3"
		},
		{
			"bufferView":7,
			"componentType":5126,
			"count":400,
			"type":"VEC3"
		},
		{
			"bufferView":8,
			"componentType":5123,
			"count":1428,
			"type":"SCALAR"
		},
		{
			"bufferView":9,
			"componentType":5126,
			"count":14061,
			"max":[
				0.40500062704086304,
				0.02500000037252903,
				0.00500012980774045
			],
			"min":[
				-0.005000162869691849,
				0,
				-0.405000776052475
			],
			"type":"VEC3"
		},
		{
			"bufferView":10,
			"componentType":5126,
			"count":14061,
			"type":"VEC3"
		},
		{
			"bufferView":11,
			"componentType":5126,
			"count":14061,
			"type":"VEC2"
		},
		{
			"bufferView":12,
			"componentType":5123,
			"count":21642,
			"type":"SCALAR"
		},
		{
			"bufferView":13,
			"componentType":5126,
			"count":24,
			"max":[
				0.019999999552965164,
				0.004000000189989805,
				0
			],
			"min":[
				0,
				0,
				-0.019999999552965164
			],
			"type":"VEC3"
		},
		{
			"bufferView":14,
			"componentType":5126,
			"count":24,
			"type":"VEC3"
		},
		{
			"bufferView":15,
			"componentType":5123,
			"count":36,
			"type":"SCALAR"
		},
		{
			"bufferView":16,
			"componentType":5126,
			"count":1284,
			"max":[
				0.20000000298023224,
				0.16500000655651093,
				0
			],
			"min":[
				0,
				0,
				-0.20000000298023224
			],
			"type":"VEC3"
		},
		{
			"bufferView":17,
			"componentType":5126,
			"count":1284,
			"type":"VEC3"
		},
		{
			"bufferView":18,
			"componentType":5123,
			"count":6708,
			"type":"SCALAR"
		},
		{
			"bufferView":19,
			"componentType":5126,
			"count":24,
			"max":[
				0.019999999552965164,
				0.004000000189989805,
				0
			],
			"min":[
				0,
				0,
				-0.019999999552965164
			],
			"type":"VEC3"
		},
		{
			"bufferView":20,
			"componentType":5126,
			"count":24,
			"type":"VEC3"
		},
		{
			"bufferView":21,
			"componentType":5126,
			"count":24,
			"max":[
				0.019999999552965164,
				0.004000000189989805,
				0
			],
			"min":[
				0,
				0,
				-0.019999999552965164
			],
			"type":"VEC3"
		},
		{
			"bufferView":22,
			"componentType":5126,
			"count":24,
			"type":"VEC3"
		},
		{
			"bufferView":23,
			"componentType":5126,
			"count":24,
			"max":[
				0.019999999552965164,
				0.004000000189989805,
				0
			],
			"min":[
				0,
				0,
				-0.019999999552965164
			],
			"type":"VEC3"
		},
		{
			"bufferView":24,
			"componentType":5126,
			"count":24,
			"type":"VEC3"
		}
	],
	"bufferViews":[
		{
			"buffer":0,
			"byteLength":5196,
			"byteOffset":0,
			"target":34962
		},
		{
			"buffer":0,
			"byteLength":5196,
			"byteOffset":5196,
			"target":34962
		},
		{
			"buffer":0,
			"byteLength":1896,
			"byteOffset":10392,
			"target":34963
		},
		{
			"buffer":0,
			"byteLength":3840,
			"byteOffset":12288,
			"target":34962
		},
		{
			"buffer":0,
			"byteLength":3840,
			"byteOffset":16128,
			"target":34962
		},
		{
			"buffer":0,
			"byteLength":1896,
			"byteOffset":19968,
			"target":34963
		},
		{
			"buffer":0,
			"byteLength":4800,
			"byteOffset":21864,
			"target":34962
		},
		{
			"buffer":0,
			"byteLength":4800,
			"byteOffset":26664,
			"target":34962
		},
		{
			"buffer":0,
			"byteLength":2856,
			"byteOffset":31464,
			"target":34963
		},
		{
			"buffer":0,
			"byteLength":168732,
			"byteOffset":34320,
			"target":34962
		},
		{
			"buffer":0,
			"byteLength":168732,
			"byteOffset":203052,
			"target":34962
		},
		{
			"buffer":0,
			"byteLength":112488,
			"byteOffset":371784,
			"target":34962
		},
		{
			"buffer":0,
			"byteLength":43284,
			"byteOffset":484272,
			"target":34963
		},
		{
			"buffer":0,
			"byteLength":288,
			"byteOffset":527556,
			"target":34962
		},
		{
			"buffer":0,
			"byteLength":288,
			"byteOffset":527844,
			"target":34962
		},
		{
			"buffer":0,
			"byteLength":72,
			"byteOffset":528132,
			"target":34963
		},
		{
			"buffer":0,
			"byteLength":15408,
			"byteOffset":528204,
			"target":34962
		},
		{
			"buffer":0,
			"byteLength":15408,
			"byteOffset":543612,
			"target":34962
		},
		{
			"buffer":0,
			"byteLength":13416,
			"byteOffset":559020,
			"target":34963
		},
		{
			"buffer":0,
			"byteLength":288,
			"byteOffset":572436,
			"target":34962
		},
		{
			"buffer":0,
			"byteLength":288,
			"byteOffset":572724,
			"target":34962
		},
		{
			"buffer":0,
			"byteLength":288,
			"byteOffset":573012,
			"target":34962
		},
		{
			"buffer":0,
			"byteLength":288,
			"byteOffset":573300,
			"target":34962
		},
		{
			"buffer":0,
			"byteLength":288,
			"byteOffset":573588,
			"target":34962
		},
		{
			"buffer":0,
			"byteLength":288,
			"byteOffset":573876,
			"target":34962
		}
	],
	"samplers":[
		{
			"magFilter":9729,
			"minFilter":9987
		}
	],
	"buffers":[
		{
			"byteLength":574164,
			"uri":"kim.bin"
		}
	]
}
